<svg width="299.301" height="76.001" viewBox="0 0 299.301 76.001" xmlns="http://www.w3.org/2000/svg">
  <g id="svgGroup" stroke-linecap="round" fill-rule="evenodd" font-size="9pt" stroke="#369df4"
     stroke-width="0.25mm" fill="#369df4" style="stroke:#369df4;stroke-width:0.25mm;fill:#369df4">
    <path
      d="M 82.101 74.8 L 82.101 0 L 85.301 0 L 85.301 45.4 L 103.101 29.8 L 107.201 29.8 L 86.601 47.8 L 112.401 74.8 L 108.101 74.8 L 85.301 51.1 L 85.301 74.8 L 82.101 74.8 Z M 138.001 76 L 137.101 76 A 22.388 22.388 0 0 1 120.994 69.29 A 29.348 29.348 0 0 1 120.551 68.85 A 24.897 24.897 0 0 1 115.375 61.372 A 22.582 22.582 0 0 1 113.501 52.2 A 22.359 22.359 0 0 1 120.284 35.968 A 28.65 28.65 0 0 1 120.501 35.75 Q 127.501 28.8 137.801 28.8 A 22.775 22.775 0 0 1 154.565 36.007 A 30.825 30.825 0 0 1 155.501 37 L 124.101 68 A 29.873 29.873 0 0 0 128.313 70.853 Q 130.774 72.21 133.159 72.782 A 14.71 14.71 0 0 0 136.601 73.2 Q 142.601 73.2 147.351 70.45 Q 152.101 67.7 155.201 63.1 L 155.201 68.2 A 24.287 24.287 0 0 1 147.886 73.799 A 22.266 22.266 0 0 1 138.001 76 Z M 246.001 76 L 245.101 76 A 22.388 22.388 0 0 1 228.994 69.29 A 29.348 29.348 0 0 1 228.551 68.85 A 24.897 24.897 0 0 1 223.375 61.372 A 22.582 22.582 0 0 1 221.501 52.2 A 22.359 22.359 0 0 1 228.284 35.968 A 28.65 28.65 0 0 1 228.501 35.75 Q 235.501 28.8 245.801 28.8 A 22.775 22.775 0 0 1 262.565 36.007 A 30.825 30.825 0 0 1 263.501 37 L 232.101 68 A 29.873 29.873 0 0 0 236.313 70.853 Q 238.774 72.21 241.159 72.782 A 14.71 14.71 0 0 0 244.601 73.2 Q 250.601 73.2 255.351 70.45 Q 260.101 67.7 263.201 63.1 L 263.201 68.2 A 24.287 24.287 0 0 1 255.886 73.799 A 22.266 22.266 0 0 1 246.001 76 Z M 66.901 29.8 L 70.101 29.8 L 70.101 74.8 L 66.901 74.8 L 66.901 63.6 Q 64.101 69.3 58.501 72.6 Q 52.901 75.9 46.501 75.9 A 22.979 22.979 0 0 1 29.811 69.058 A 28.101 28.101 0 0 1 29.701 68.95 A 23.277 23.277 0 0 1 23.947 59.995 A 23.383 23.383 0 0 1 22.701 52.3 Q 22.701 42.6 29.701 35.65 Q 36.701 28.7 46.501 28.7 A 23.941 23.941 0 0 1 58.385 31.891 A 28.231 28.231 0 0 1 58.751 32.1 A 20.72 20.72 0 0 1 63.521 35.84 A 17.227 17.227 0 0 1 66.901 41.1 L 66.901 29.8 Z M 162.201 69.5 L 162.201 64.7 Q 165.991 73.077 174.355 73.1 A 16.701 16.701 0 0 0 174.401 73.1 Q 179.601 73.1 183.151 69.9 A 12.526 12.526 0 0 0 185.172 67.611 A 8.541 8.541 0 0 0 186.701 62.75 Q 186.701 58.8 184.451 56.1 A 20.859 20.859 0 0 0 179.2 51.62 A 23.499 23.499 0 0 0 179.001 51.5 Q 175.801 49.6 172.651 47.75 Q 169.501 45.9 167.251 43.25 Q 165.001 40.6 165.001 37.05 A 7.521 7.521 0 0 1 167.423 31.44 A 10.042 10.042 0 0 1 167.851 31.05 A 9.935 9.935 0 0 1 172.534 28.842 A 14.027 14.027 0 0 1 175.201 28.6 Q 179.701 28.6 182.901 32.1 L 182.901 36.2 A 12.845 12.845 0 0 0 180.677 33.617 A 8.678 8.678 0 0 0 174.801 31.4 Q 172.201 31.4 170.201 33.1 A 5.86 5.86 0 0 0 168.834 34.741 A 5.231 5.231 0 0 0 168.201 37.3 A 5.572 5.572 0 0 0 169.217 40.479 A 8.408 8.408 0 0 0 170.451 41.9 A 24.79 24.79 0 0 0 173.44 44.27 A 31.527 31.527 0 0 0 175.851 45.75 Q 179.001 47.5 182.201 49.5 Q 185.401 51.5 187.651 54.6 Q 189.901 57.7 189.901 61.7 A 13.161 13.161 0 0 1 185.858 71.357 A 16.765 16.765 0 0 1 185.451 71.75 Q 181.001 75.9 174.701 75.9 Q 170.701 75.9 167.251 74.15 A 13.397 13.397 0 0 1 164.506 72.329 A 10.373 10.373 0 0 1 162.201 69.5 Z M 215.501 72.6 L 215.501 75.4 Q 208.401 75.4 203.401 70.65 Q 198.401 65.9 198.401 58.5 L 198.401 11.7 L 201.601 11.7 L 201.601 29.9 L 215.401 29.9 L 215.401 32.7 L 201.601 32.7 L 201.601 58.5 A 15.081 15.081 0 0 0 202.433 63.597 A 13.194 13.194 0 0 0 205.651 68.6 A 13.482 13.482 0 0 0 215.411 72.6 A 16.743 16.743 0 0 0 215.501 72.6 Z M 17.101 11.6 L 17.101 14.4 A 13.86 13.86 0 0 0 10.868 15.792 A 13.932 13.932 0 0 0 7.251 18.4 A 13.451 13.451 0 0 0 3.217 27.746 A 17.802 17.802 0 0 0 3.201 28.5 L 3.201 54.8 L 17.201 54.8 L 17.201 57.6 L 3.201 57.6 L 3.201 74.8 L 0.001 74.8 L 0.001 28.5 A 17.878 17.878 0 0 1 0.993 22.435 A 15.531 15.531 0 0 1 5.001 16.35 Q 10.001 11.6 17.101 11.6 Z M 276.201 44.8 L 276.201 74.8 L 273.001 74.8 L 273.001 29.8 L 276.201 29.8 L 276.201 36.5 A 13.354 13.354 0 0 1 279.923 32.153 A 17.144 17.144 0 0 1 281.801 30.9 A 16.484 16.484 0 0 1 289.572 28.713 A 19.646 19.646 0 0 1 290.301 28.7 A 14.11 14.11 0 0 1 297.246 30.566 A 18.529 18.529 0 0 1 299.301 31.9 L 299.301 35.9 Q 294.901 31.5 289.601 31.5 A 12.774 12.774 0 0 0 280.766 35.012 A 16.864 16.864 0 0 0 280.251 35.5 A 14.087 14.087 0 0 0 277.412 39.392 A 12.279 12.279 0 0 0 276.201 44.8 Z M 25.901 52.4 A 19.849 19.849 0 0 0 31.86 66.757 A 25.278 25.278 0 0 0 32.051 66.95 Q 38.201 73.1 46.651 73.1 A 19.411 19.411 0 0 0 60.818 67.235 A 24.146 24.146 0 0 0 61.101 66.95 Q 67.101 60.8 67.101 52.35 Q 67.101 43.9 61.051 37.7 A 20.507 20.507 0 0 0 54.074 32.908 A 19.68 19.68 0 0 0 46.601 31.5 A 19.679 19.679 0 0 0 32.292 37.508 A 25.439 25.439 0 0 0 32.051 37.75 Q 25.901 44 25.901 52.4 Z M 122.001 65.9 L 151.101 37 Q 144.901 31.6 136.951 31.6 A 18.98 18.98 0 0 0 124.218 36.478 A 25.437 25.437 0 0 0 122.851 37.75 A 21.885 21.885 0 0 0 118.593 43.594 A 18.65 18.65 0 0 0 116.701 51.9 Q 116.701 59.9 122.001 65.9 Z M 230.001 65.9 L 259.101 37 Q 252.901 31.6 244.951 31.6 A 18.98 18.98 0 0 0 232.218 36.478 A 25.437 25.437 0 0 0 230.851 37.75 A 21.885 21.885 0 0 0 226.593 43.594 A 18.65 18.65 0 0 0 224.701 51.9 Q 224.701 59.9 230.001 65.9 Z"
      vector-effect="non-scaling-stroke"/>
  </g>
</svg>
